<svg width="48" height="48" viewBox="0 0 48 48" fill="none" xmlns="http://www.w3.org/2000/svg">
<rect width="48" height="48" fill="white"/>
<path d="M33.5 22C33.5 23.0893 32.604 24.2101 30.8475 25.0883C29.1209 25.9516 26.7006 26.5 24 26.5C21.2994 26.5 18.8791 25.9516 17.1525 25.0883C15.396 24.2101 14.5 23.0893 14.5 22C14.5 20.9107 15.396 19.7899 17.1525 18.9117C18.8791 18.0484 21.2994 17.5 24 17.5C26.7006 17.5 29.1209 18.0484 30.8475 18.9117C32.604 19.7899 33.5 20.9107 33.5 22Z" stroke="black"/>
<path d="M29.5 22C29.5 22.537 29.0517 23.1578 28.019 23.6741C27.0163 24.1755 25.5961 24.5 24 24.5C22.4039 24.5 20.9837 24.1755 19.981 23.6741C18.9483 23.1578 18.5 22.537 18.5 22C18.5 21.463 18.9483 20.8422 19.981 20.3259C20.9837 19.8245 22.4039 19.5 24 19.5C25.5961 19.5 27.0163 19.8245 28.019 20.3259C29.0517 20.8422 29.5 21.463 29.5 22Z" stroke="black"/>
</svg>
