<svg width="48" height="48" viewBox="0 0 48 48" fill="none" xmlns="http://www.w3.org/2000/svg">
<rect width="48" height="48" fill="white"/>
<path d="M34.5 16.5C34.5 16.7542 34.3376 17.0847 33.835 17.4628C33.3409 17.8345 32.5942 18.1905 31.6266 18.4984C29.6972 19.1123 27.0007 19.5 24 19.5C20.9993 19.5 18.3028 19.1123 16.3734 18.4984C15.4058 18.1905 14.6591 17.8345 14.165 17.4628C13.6624 17.0847 13.5 16.7542 13.5 16.5C13.5 16.2458 13.6624 15.9153 14.165 15.5372C14.6591 15.1655 15.4058 14.8095 16.3734 14.5016C18.3028 13.8877 20.9993 13.5 24 13.5C27.0007 13.5 29.6972 13.8877 31.6266 14.5016C32.5942 14.8095 33.3409 15.1655 33.835 15.5372C34.3376 15.9153 34.5 16.2458 34.5 16.5ZM34.4361 18.2619C34.4576 18.2458 34.4789 18.2294 34.5 18.213V26.5C34.5 26.7542 34.3376 27.0847 33.835 27.4628C33.3409 27.8345 32.5942 28.1905 31.6266 28.4984C29.6972 29.1123 27.0007 29.5 24 29.5C20.9993 29.5 18.3028 29.1123 16.3734 28.4984C15.4058 28.1905 14.6591 27.8345 14.165 27.4628C13.6624 27.0847 13.5 26.7542 13.5 26.5V18.213C13.5211 18.2294 13.5424 18.2458 13.5639 18.2619C14.183 18.7277 15.0472 19.1258 16.0702 19.4513C18.122 20.1042 20.9255 20.5 24 20.5C27.0745 20.5 29.878 20.1042 31.9298 19.4513C32.9528 19.1258 33.817 18.7277 34.4361 18.2619Z" stroke="black"/>
</svg>
