<svg width="48" height="48" viewBox="0 0 48 48" fill="none" xmlns="http://www.w3.org/2000/svg">
<rect width="48" height="48" fill="white"/>
<path d="M14.501 22.3729C14.5663 18.1805 17.8564 14.7709 22 14.5154V14.5243V14.536V14.5479V14.5599V14.572V14.5842V14.5965V14.609V14.6215V14.6342V14.647V14.6599V14.673V14.6861V14.6993V14.7127V14.7262V14.7398V14.7535V14.7673V14.7812V14.7952V14.8094V14.8236V14.838V14.8525V14.867V14.8817V14.8965V14.9114V14.9264V14.9415V14.9567V14.9721V14.9875V15.003V15.0187V15.0344V15.0503V15.0662V15.0823V15.0984V15.1147V15.131V15.1475V15.164V15.1807V15.1974V15.2143V15.2312V15.2483V15.2654V15.2827V15.3V15.3175V15.335V15.3527V15.3704V15.3882V15.4061V15.4241V15.4423V15.4605V15.4788V15.4971V15.5156V15.5342V15.5529V15.5716V15.5905V15.6094V15.6284V15.6475V15.6667V15.686V15.7054V15.7249V15.7444V15.7641V15.7838V15.8036V15.8235V15.8435V15.8636V15.8838V15.904V15.9243V15.9447V15.9652V15.9858V16.0065V16.0272V16.048V16.0689V16.0899V16.111V16.1321V16.1533V16.1746V16.196V16.2174V16.239V16.2606V16.2823V16.304V16.3259V16.3478V16.3698V16.3919V16.414V16.4362V16.4585V16.4809V16.5033V16.5258V16.5484V16.571V16.5937V16.6165V16.6394V16.6623V16.6853V16.7084V16.7315V16.7547V16.778V16.8014V16.8248V16.8483V16.8718V16.8954V16.9191V16.9428V16.9666V16.9905V17.0144V17.0384V17.0625V17.0866V17.1108V17.135V17.1593V17.1837V17.2081V17.2326V17.2572V17.2818V17.3064V17.3312V17.3559V17.3808V17.4057V17.4306V17.4556V17.4807V17.5058V17.531V17.5562V17.5815V17.6069V17.6323V17.6577V17.6832V17.7088V17.7344V17.76V17.7857V17.8115V17.8373V17.8632V17.8891V17.915V17.9411V17.9671V17.9932V18.0194V18.0456V18.0718V18.0981V18.1244V18.1508V18.1772V18.2037V18.2302V18.2568V18.2834V18.31V18.3367V18.3635V18.3902V18.4171V18.4439V18.4708V18.4977V18.5247V18.5517V18.5788V18.6059V18.633V18.6602V18.6874V18.7146V18.7419V18.7692V18.7966V18.824V18.8514V18.8789V18.9063V18.9339V18.9614V18.989V19.0166V19.0443V19.072V19.0997V19.1275V19.1552V19.183V19.2109V19.2387V19.2666V19.2946V19.3225V19.3505V19.3785V19.4065V19.4346V19.4627V19.4908V19.5189V19.5471V19.5753V19.6035V19.6317V19.66V19.6883V19.7166V19.7449V19.7733V19.8016V19.83V19.8584V19.8868V19.9153V19.9438V19.9722V20.0007V20.0293V20.0578V20.0864V20.1149V20.1435V20.1721V20.2007V20.2294V20.258V20.2867V20.3154V20.344V20.3727V20.4015V20.4302V20.4589V20.4877V20.5164V20.5452V20.574V20.6028V20.6316V20.6604V20.6892V20.718V20.7469V20.7757V20.8046V20.8334V20.8623V20.8911V20.92V20.9489V20.9778V21.0066V21.0355V21.0644V21.0933V21.1222V21.1511V21.18V21.2089V21.2378V21.2667V21.2956V21.3245V21.3534V21.3823V21.4112V21.4401V21.469V21.4979V21.5267V21.5556V21.5845V21.6134V21.6422V21.6711V21.7V21.7288V21.7576V21.7865V21.8153V21.8441V21.8729V21.9017V21.9305V21.9593V21.9881V22.0169V22.0456V22.0744V22.1031V22.1318V22.1605V22.1892V22.2179V22.2466V22.2752V22.3039V22.3325V22.3611V22.3897V22.4183V22.4468V22.4754V22.5039V22.5324V22.5609V22.5894V22.6178V22.6463V22.6747V22.7031V22.7314V22.7598V22.7881V22.8164V22.8447V22.873V22.9012V22.9294V22.9576V22.9858V23.014V23.0421V23.0702V23.0983V23.1263V23.1543V23.1823V23.2103V23.2382V23.2661V23.294V23.3218V23.3497V23.3774V23.4052V23.4329V23.4606V23.4883V23.5159V23.5435V23.5711V23.5986V23.6262V23.6536V23.6811V23.7085V23.7358V23.7631V23.7904V23.8177V23.8449V23.8721V23.8992V23.9264V23.9534V23.9805V24.0074V24.0344V24.0613V24.0882V24.115V24.1418V24.1685V24.1952V24.2219V24.2485V24.2751V24.3016V24.3281V24.3546V24.381V24.4073V24.4336V24.4599V24.4861V24.4961C18.6153 24.4433 16.713 23.8563 15.6704 23.3075C15.1255 23.0208 14.814 22.7439 14.6451 22.5561C14.5761 22.4795 14.53 22.4167 14.501 22.3729ZM15.2046 24.1925C16.4294 24.8371 18.5034 25.4434 22 25.4963V25.4974V25.512V25.5267V25.5414V25.5561V25.5709V25.5856V25.6004V25.6152V25.63V25.6449V25.6598V25.6746V25.6896V25.7045V25.7194V25.7344V25.7494V25.7644V25.7794V25.7944V25.8095V25.8246V25.8397V25.8548V25.8699V25.885V25.9002V25.9154V25.9306V25.9458V25.961V25.9762V25.9915V26.0067V26.022V26.0373V26.0526V26.068V26.0833V26.0986V26.114V26.1294V26.1448V26.1602V26.1756V26.191V26.2065V26.2219V26.2374V26.2529V26.2684V26.2839V26.2994V26.3149V26.3304V26.346V26.3615V26.3771V26.3926V26.4082V26.4238V26.4394V26.455V26.4706V26.4862V26.5019V26.5175V26.5332V26.5488V26.5645V26.5801V26.5958V26.6115V26.6272V26.6429V26.6585V26.6742V26.69V26.7057V26.7214V26.7371V26.7528V26.7686V26.7843V26.8V26.8158V26.8315V26.8472V26.863V26.8787V26.8945V26.9103V26.926V26.9418V26.9575V26.9733V26.9891V27.0048V27.0206V27.0363V27.0521V27.0679V27.0836V27.0994V27.1152V27.1309V27.1467V27.1624V27.1782V27.194V27.2097V27.2255V27.2412V27.2569V27.2727V27.2884V27.3042V27.3199V27.3356V27.3513V27.3671V27.3828V27.3985V27.4142V27.4299V27.4456V27.4613V27.4769V27.4926V27.5083V27.524V27.5396V27.5553V27.5709V27.5865V27.6022V27.6178V27.6334V27.649V27.6646V27.6802V27.6957V27.7113V27.7269V27.7424V27.758V27.7735V27.789V27.8045V27.82V27.8355V27.851V27.8664V27.8819V27.8973V27.9127V27.9281V27.9435V27.9589V27.9743V27.9897V28.005V28.0203V28.0357V28.051V28.0663V28.0815V28.0968V28.1121V28.1273V28.1425V28.1577V28.1729V28.1881V28.2032V28.2183V28.2335V28.2486V28.2636V28.2787V28.2938V28.3088V28.3238V28.3388V28.3538V28.3687V28.3837V28.3986V28.4135V28.4284V28.4432V28.4581V28.4729V28.4877V28.5025V28.5172V28.532V28.5467V28.5614V28.576V28.5907V28.6053V28.6199V28.6345V28.6491V28.6636V28.6781V28.6926V28.7071V28.7215V28.7359V28.7503V28.7647V28.779V28.7933V28.8076V28.8219V28.8361V28.8503V28.8645V28.8787V28.8928V28.9069V28.921V28.935V28.9491V28.9631V28.977V28.991V29.0049V29.0188V29.0326V29.0464V29.0602V29.074V29.0877V29.1014V29.1151V29.1287V29.1424V29.1559V29.1695V29.183V29.1965V29.2099V29.2234V29.2368V29.2501V29.2634V29.2767V29.29V29.3032V29.3164V29.3296V29.3427V29.3558V29.3688V29.3818V29.3948V29.4078V29.4207V29.4336V29.4464V29.4592V29.472V29.4847V29.4974V29.5101V29.5227V29.5353V29.5478V29.5603V29.5728V29.5852V29.5976V29.61V29.6223V29.6346V29.6468V29.659V29.6712V29.6833V29.6954V29.7074V29.7194V29.7313V29.7433V29.7551V29.767V29.7787V29.7905V29.8022V29.8138V29.8255V29.837V29.8486V29.8601V29.8715V29.8829V29.8943V29.9056V29.9168V29.9281V29.9392V29.9504V29.9615V29.9725V29.9835V29.9944V30.0053V30.0162V30.027V30.0378V30.0485V30.0592V30.0698V30.0803V30.0909V30.1013V30.1118V30.1221V30.1325V30.1428V30.153V30.1632V30.1733V30.1834V30.1934V30.2034V30.2133V30.2232V30.233V30.2428V30.2525V30.2622V30.2718V30.2814V30.2909V30.3003V30.3098V30.3191V30.3284V30.3377V30.3469V30.356V30.3651V30.3741V30.3831V30.392V30.4009V30.4097V30.4184V30.4271V30.4358V30.4444V30.4529V30.4614V30.4698V30.4781V30.4846C18.2628 30.2542 15.2198 27.4579 14.611 23.8357C14.7822 23.9536 14.9789 24.0736 15.2046 24.1925ZM23 30.4846V30.4781V30.4698V30.4614V30.4529V30.4444V30.4358V30.4271V30.4184V30.4097V30.4009V30.392V30.3831V30.3741V30.3651V30.356V30.3469V30.3377V30.3284V30.3191V30.3098V30.3003V30.2909V30.2814V30.2718V30.2622V30.2525V30.2428V30.233V30.2232V30.2133V30.2034V30.1934V30.1834V30.1733V30.1632V30.153V30.1428V30.1325V30.1221V30.1118V30.1013V30.0909V30.0803V30.0698V30.0592V30.0485V30.0378V30.027V30.0162V30.0053V29.9944V29.9835V29.9725V29.9615V29.9504V29.9392V29.9281V29.9168V29.9056V29.8943V29.8829V29.8715V29.8601V29.8486V29.837V29.8255V29.8138V29.8022V29.7905V29.7787V29.767V29.7551V29.7433V29.7313V29.7194V29.7074V29.6954V29.6833V29.6712V29.659V29.6468V29.6346V29.6223V29.61V29.5976V29.5852V29.5728V29.5603V29.5478V29.5353V29.5227V29.5101V29.4974V29.4847V29.472V29.4592V29.4464V29.4336V29.4207V29.4078V29.3948V29.3818V29.3688V29.3558V29.3427V29.3296V29.3164V29.3032V29.29V29.2767V29.2634V29.2501V29.2368V29.2234V29.2099V29.1965V29.183V29.1695V29.1559V29.1424V29.1287V29.1151V29.1014V29.0877V29.074V29.0602V29.0464V29.0326V29.0188V29.0049V28.991V28.977V28.9631V28.9491V28.935V28.921V28.9069V28.8928V28.8787V28.8645V28.8503V28.8361V28.8219V28.8076V28.7933V28.779V28.7647V28.7503V28.7359V28.7215V28.7071V28.6926V28.6781V28.6636V28.6491V28.6345V28.6199V28.6053V28.5907V28.576V28.5614V28.5467V28.532V28.5172V28.5025V28.4877V28.4729V28.4581V28.4432V28.4284V28.4135V28.3986V28.3837V28.3687V28.3538V28.3388V28.3238V28.3088V28.2938V28.2787V28.2636V28.2486V28.2335V28.2183V28.2032V28.1881V28.1729V28.1577V28.1425V28.1273V28.1121V28.0968V28.0815V28.0663V28.051V28.0357V28.0203V28.005V27.9897V27.9743V27.9589V27.9435V27.9281V27.9127V27.8973V27.8819V27.8664V27.851V27.8355V27.82V27.8045V27.789V27.7735V27.758V27.7424V27.7269V27.7113V27.6957V27.6802V27.6646V27.649V27.6334V27.6178V27.6022V27.5865V27.5709V27.5553V27.5396V27.524V27.5083V27.4926V27.4769V27.4613V27.4456V27.4299V27.4142V27.3985V27.3828V27.3671V27.3513V27.3356V27.3199V27.3042V27.2884V27.2727V27.2569V27.2412V27.2255V27.2097V27.194V27.1782V27.1624V27.1467V27.1309V27.1152V27.0994V27.0836V27.0679V27.0521V27.0363V27.0206V27.0048V26.9891V26.9733V26.9575V26.9418V26.926V26.9103V26.8945V26.8787V26.863V26.8472V26.8315V26.8158V26.8V26.7843V26.7686V26.7528V26.7371V26.7214V26.7057V26.69V26.6742V26.6585V26.6429V26.6272V26.6115V26.5958V26.5801V26.5645V26.5488V26.5332V26.5175V26.5019V26.4862V26.4706V26.455V26.4394V26.4238V26.4082V26.3926V26.3771V26.3615V26.346V26.3304V26.3149V26.2994V26.2839V26.2684V26.2529V26.2374V26.2219V26.2065V26.191V26.1756V26.1602V26.1448V26.1294V26.114V26.0986V26.0833V26.068V26.0526V26.0373V26.022V26.0067V25.9915V25.9762V25.961V25.9458V25.9306V25.9154V25.9002V25.885V25.8699V25.8548V25.8397V25.8246V25.8095V25.7944V25.7794V25.7644V25.7494V25.7344V25.7194V25.7045V25.6896V25.6746V25.6598V25.6449V25.63V25.6152V25.6004V25.5856V25.5709V25.5561V25.5414V25.5267V25.512V25.4974V25.4963C26.4966 25.4434 28.5706 24.8371 29.7954 24.1925C30.0211 24.0736 30.2178 23.9536 30.389 23.8357C29.7802 27.4579 26.7372 30.2542 23 30.4846ZM30.499 22.3729C30.47 22.4167 30.4239 22.4795 30.3549 22.5561C30.186 22.7439 29.8745 23.0208 29.3296 23.3075C28.287 23.8563 26.3847 24.4433 23 24.4961V24.4861V24.4599V24.4336V24.4073V24.381V24.3546V24.3281V24.3016V24.2751V24.2485V24.2219V24.1952V24.1685V24.1418V24.115V24.0882V24.0613V24.0344V24.0074V23.9805V23.9534V23.9264V23.8992V23.8721V23.8449V23.8177V23.7904V23.7631V23.7358V23.7085V23.6811V23.6536V23.6262V23.5986V23.5711V23.5435V23.5159V23.4883V23.4606V23.4329V23.4052V23.3774V23.3497V23.3218V23.294V23.2661V23.2382V23.2103V23.1823V23.1543V23.1263V23.0983V23.0702V23.0421V23.014V22.9858V22.9576V22.9294V22.9012V22.873V22.8447V22.8164V22.7881V22.7598V22.7314V22.7031V22.6747V22.6463V22.6178V22.5894V22.5609V22.5324V22.5039V22.4754V22.4468V22.4183V22.3897V22.3611V22.3325V22.3039V22.2752V22.2466V22.2179V22.1892V22.1605V22.1318V22.1031V22.0744V22.0456V22.0169V21.9881V21.9593V21.9305V21.9017V21.8729V21.8441V21.8153V21.7865V21.7576V21.7288V21.7V21.6711V21.6422V21.6134V21.5845V21.5556V21.5267V21.4979V21.469V21.4401V21.4112V21.3823V21.3534V21.3245V21.2956V21.2667V21.2378V21.2089V21.18V21.1511V21.1222V21.0933V21.0644V21.0355V21.0066V20.9778V20.9489V20.92V20.8911V20.8623V20.8334V20.8046V20.7757V20.7469V20.718V20.6892V20.6604V20.6316V20.6028V20.574V20.5452V20.5164V20.4877V20.4589V20.4302V20.4015V20.3727V20.344V20.3154V20.2867V20.258V20.2294V20.2007V20.1721V20.1435V20.1149V20.0864V20.0578V20.0293V20.0007V19.9722V19.9438V19.9153V19.8868V19.8584V19.83V19.8016V19.7733V19.7449V19.7166V19.6883V19.66V19.6317V19.6035V19.5753V19.5471V19.5189V19.4908V19.4627V19.4346V19.4065V19.3785V19.3505V19.3225V19.2946V19.2666V19.2387V19.2109V19.183V19.1552V19.1275V19.0997V19.072V19.0443V19.0166V18.989V18.9614V18.9339V18.9063V18.8789V18.8514V18.824V18.7966V18.7692V18.7419V18.7146V18.6874V18.6602V18.633V18.6059V18.5788V18.5517V18.5247V18.4977V18.4708V18.4439V18.4171V18.3902V18.3635V18.3367V18.31V18.2834V18.2568V18.2302V18.2037V18.1772V18.1508V18.1244V18.0981V18.0718V18.0456V18.0194V17.9932V17.9671V17.9411V17.915V17.8891V17.8632V17.8373V17.8115V17.7857V17.76V17.7344V17.7088V17.6832V17.6577V17.6323V17.6069V17.5815V17.5562V17.531V17.5058V17.4807V17.4556V17.4306V17.4057V17.3808V17.3559V17.3312V17.3064V17.2818V17.2572V17.2326V17.2081V17.1837V17.1593V17.135V17.1108V17.0866V17.0625V17.0384V17.0144V16.9905V16.9666V16.9428V16.9191V16.8954V16.8718V16.8483V16.8248V16.8014V16.778V16.7547V16.7315V16.7084V16.6853V16.6623V16.6394V16.6165V16.5937V16.571V16.5484V16.5258V16.5033V16.4809V16.4585V16.4362V16.414V16.3919V16.3698V16.3478V16.3259V16.304V16.2823V16.2606V16.239V16.2174V16.196V16.1746V16.1533V16.1321V16.111V16.0899V16.0689V16.048V16.0272V16.0065V15.9858V15.9652V15.9447V15.9243V15.904V15.8838V15.8636V15.8435V15.8235V15.8036V15.7838V15.7641V15.7444V15.7249V15.7054V15.686V15.6667V15.6475V15.6284V15.6094V15.5905V15.5716V15.5529V15.5342V15.5156V15.4971V15.4788V15.4605V15.4423V15.4241V15.4061V15.3882V15.3704V15.3527V15.335V15.3175V15.3V15.2827V15.2654V15.2483V15.2312V15.2143V15.1974V15.1807V15.164V15.1475V15.131V15.1147V15.0984V15.0823V15.0662V15.0503V15.0344V15.0187V15.003V14.9875V14.9721V14.9567V14.9415V14.9264V14.9114V14.8965V14.8817V14.867V14.8525V14.838V14.8236V14.8094V14.7952V14.7812V14.7673V14.7535V14.7398V14.7262V14.7127V14.6993V14.6861V14.673V14.6599V14.647V14.6342V14.6215V14.609V14.5965V14.5842V14.572V14.5599V14.5479V14.536V14.5243V14.5154C27.1436 14.7709 30.4337 18.1805 30.499 22.3729Z" stroke="black"/>
</svg>
