<svg width="48" height="48" viewBox="0 0 48 48" fill="none" xmlns="http://www.w3.org/2000/svg">
<path d="M9 24C9 28.9706 13.0294 33 18 33C19.6393 33 21.1762 32.5617 22.5 31.796C19.8099 30.2398 18 27.3313 18 24C18 20.6687 19.8099 17.7602 22.5 16.204C21.1762 15.4383 19.6393 15 18 15C13.0294 15 9 19.0294 9 24Z" fill="#fc7f7f"/>
<path d="M22.5 16.204C19.8099 17.7602 18 20.6687 18 24C18 27.3313 19.8099 30.2398 22.5 31.796M22.5 16.204C23.8238 15.4383 25.3607 15 27 15C31.9706 15 36 19.0294 36 24C36 28.9706 31.9706 33 27 33C25.3607 33 23.8238 32.5617 22.5 31.796M22.5 16.204C21.1762 15.4383 19.6393 15 18 15C13.0294 15 9 19.0294 9 24C9 28.9706 13.0294 33 18 33C19.6393 33 21.1762 32.5617 22.5 31.796M22.5 16.204C25.1901 17.7602 27 20.6687 27 24C27 27.3313 25.1901 30.2398 22.5 31.796" stroke="#fc7f7f" stroke-width="2"/>
</svg>
